<?xml version="1.0" encoding="UTF-8"?>
<svg id="Layer_1" xmlns="http://www.w3.org/2000/svg" version="1.1" viewBox="0 0 100 96">
  <!-- Generator: Adobe Illustrator 29.1.0, SVG Export Plug-In . SVG Version: 2.1.0 Build 142)  -->
  <defs>
    <style>
      .st0 {
        fill: #fff;
      }
    </style>
  </defs>
  <path class="st0" d="M55.5.2h-2.5C23.3.2,8.5,16.5,8.5,36.7h0c0,1.3,0,2.5.2,3.8l-6.3,4.1c-.5.3-.7,1-.4,1.6l7.2,14.6-6.2,1.3c-.5,0-.8.5-1,.9l-1.9,7.6c-1,4,.8,8.1,4.3,10.1l2.6,1.5s-4.1,10.3-.6,13.2c3.6,2.8,37.1-10,38.4-11.3s1.4-5.5,2.2-10.9h6c29.6,0,46.8-16.3,46.8-36.5h0C99.8,16.5,86.4.2,55.3.2h.2Z"/>
  <g>
    <path d="M16,53.9c-.6,0-1.2-.3-1.5-.9-.3-.6-.3-1.3,0-1.8,1.6-2.4,2.4-5.1,2.4-7.8s-.8-5.4-2.4-7.8c-.4-.5-.4-1.3,0-1.8.3-.6.9-.9,1.5-.9h0c6.5.2,11.6,4.8,11.6,10.5s-5.1,10.3-11.6,10.5h0Z"/>
    <path d="M11.1,78.9c-2.1,0-3.9-1.5-4.3-3.6-.2-1.1,0-2.3.7-3.3s1.7-1.6,2.8-1.8h.8c2.1,0,3.9,1.4,4.3,3.5.4,2.4-1.1,4.7-3.5,5.2,0,0-.8,0-.8,0Z"/>
    <path d="M23,76.4c-2.1,0-3.9-1.5-4.3-3.6-.2-1.1,0-2.3.7-3.3s1.7-1.6,2.8-1.8h.8c2.1,0,3.9,1.4,4.3,3.5.4,2.4-1.1,4.7-3.5,5.2,0,0-.8,0-.8,0Z"/>
    <path d="M34.9,73.9c-2.1,0-3.9-1.5-4.3-3.6-.2-1.1,0-2.3.7-3.3s1.7-1.6,2.8-1.8h.8c2.1,0,3.9,1.4,4.3,3.5.4,2.4-1.1,4.7-3.5,5.2,0,0-.8,0-.8,0Z"/>
  </g>
</svg>